<svg xmlns="http://www.w3.org/2000/svg" xmlns:xlink="http://www.w3.org/1999/xlink" width="500" zoomAndPan="magnify" viewBox="0 0 375 374.999991" height="500" preserveAspectRatio="xMidYMid meet" version="1.0"><defs><clipPath id="7de9461a18"><path d="M 71.738281 39.585938 L 303.476562 39.585938 L 303.476562 271.671875 L 71.738281 271.671875 Z M 71.738281 39.585938 " clip-rule="nonzero"/></clipPath><clipPath id="dd6ae01401"><path d="M 161.007812 254.363281 L 294.71875 254.363281 L 294.71875 335.777344 L 161.007812 335.777344 Z M 161.007812 254.363281 " clip-rule="nonzero"/></clipPath></defs><g clip-path="url(#7de9461a18)"><path fill="#1976d2" d="M 148.070312 249.8125 C 118.234375 232.945312 98.09375 200.933594 98.09375 164.207031 C 98.09375 109.9375 142.074219 65.945312 196.332031 65.945312 C 226.316406 65.945312 253.160156 79.390625 271.179688 100.574219 L 303.476562 100.574219 C 281.75 64.054688 241.898438 39.585938 196.332031 39.585938 C 127.519531 39.585938 71.738281 95.382812 71.738281 164.207031 C 71.738281 209.835938 96.257812 249.730469 132.828125 271.445312 L 148.070312 249.8125 " fill-opacity="1" fill-rule="nonzero"/></g><g clip-path="url(#dd6ae01401)"><path fill="#1976d2" d="M 225.441406 258.078125 C 224.351562 258.417969 223.253906 258.738281 222.152344 259.039062 L 161.152344 283.789062 C 165.308594 285.011719 169.554688 286.027344 173.882812 286.8125 L 294.566406 335.777344 L 237.386719 254.613281 C 233.496094 256.03125 229.507812 257.195312 225.441406 258.078125 " fill-opacity="1" fill-rule="nonzero"/></g><path fill="#d9d9d9" d="M 205.59375 231.441406 C 241.128906 231.441406 269.9375 202.625 269.9375 167.078125 C 269.9375 131.535156 241.128906 102.71875 205.59375 102.71875 C 185.953125 102.71875 168.371094 111.523438 156.566406 125.398438 L 135.414062 125.398438 C 149.644531 101.480469 175.746094 85.453125 205.59375 85.453125 C 250.664062 85.453125 287.199219 122 287.199219 167.078125 C 287.199219 207.140625 258.347656 240.460938 220.296875 247.382812 L 141.25 279.453125 L 179.089844 225.742188 C 187.171875 229.402344 196.144531 231.441406 205.59375 231.441406 " fill-opacity="1" fill-rule="nonzero"/><path fill="#1976d2" d="M 181.148438 164.210938 C 181.148438 170.050781 176.414062 174.789062 170.574219 174.789062 C 164.734375 174.789062 160 170.050781 160 164.210938 C 160 158.367188 164.734375 153.632812 170.574219 153.632812 C 176.414062 153.632812 181.148438 158.367188 181.148438 164.210938 " fill-opacity="1" fill-rule="nonzero"/><path fill="#1976d2" d="M 212.996094 164.210938 C 212.996094 170.050781 208.261719 174.789062 202.421875 174.789062 C 196.578125 174.789062 191.84375 170.050781 191.84375 164.210938 C 191.84375 158.367188 196.578125 153.632812 202.421875 153.632812 C 208.261719 153.632812 212.996094 158.367188 212.996094 164.210938 " fill-opacity="1" fill-rule="nonzero"/><path fill="#1976d2" d="M 244.84375 164.210938 C 244.84375 170.050781 240.105469 174.789062 234.265625 174.789062 C 228.425781 174.789062 223.691406 170.050781 223.691406 164.210938 C 223.691406 158.367188 228.425781 153.632812 234.265625 153.632812 C 240.105469 153.632812 244.84375 158.367188 244.84375 164.210938 " fill-opacity="1" fill-rule="nonzero"/></svg>