<svg xmlns="http://www.w3.org/2000/svg" xmlns:xlink="http://www.w3.org/1999/xlink" width="500" zoomAndPan="magnify" viewBox="0 0 375 374.999991" height="500" preserveAspectRatio="xMidYMid meet" version="1.0"><defs><g/><clipPath id="3bacd8e954"><path d="M 11.863281 122.929688 L 113.109375 122.929688 L 113.109375 223.992188 L 11.863281 223.992188 Z M 11.863281 122.929688 " clip-rule="nonzero"/></clipPath><clipPath id="abfee98d57"><path d="M 50.867188 216.457031 L 109.28125 216.457031 L 109.28125 251.90625 L 50.867188 251.90625 Z M 50.867188 216.457031 " clip-rule="nonzero"/></clipPath></defs><g clip-path="url(#3bacd8e954)"><path fill="#1976d2" d="M 45.214844 214.472656 C 32.179688 207.128906 23.378906 193.1875 23.378906 177.195312 C 23.378906 153.566406 42.59375 134.40625 66.296875 134.40625 C 79.398438 134.40625 91.125 140.261719 99 149.488281 L 113.109375 149.488281 C 103.617188 133.585938 86.207031 122.929688 66.296875 122.929688 C 36.234375 122.929688 11.863281 147.226562 11.863281 177.195312 C 11.863281 197.066406 22.574219 214.4375 38.554688 223.894531 L 45.214844 214.472656 " fill-opacity="1" fill-rule="nonzero"/></g><g clip-path="url(#abfee98d57)"><path fill="#1976d2" d="M 79.015625 218.074219 C 78.539062 218.222656 78.0625 218.363281 77.578125 218.492188 L 50.925781 229.269531 C 52.746094 229.800781 54.601562 230.242188 56.492188 230.585938 L 109.21875 251.910156 L 84.234375 216.566406 C 82.535156 217.183594 80.792969 217.6875 79.015625 218.074219 " fill-opacity="1" fill-rule="nonzero"/></g><path fill="#d9d9d9" d="M 70.34375 206.472656 C 85.871094 206.472656 98.457031 193.925781 98.457031 178.449219 C 98.457031 162.96875 85.871094 150.421875 70.34375 150.421875 C 61.761719 150.421875 54.082031 154.253906 48.925781 160.296875 L 39.683594 160.296875 C 45.902344 149.882812 57.304688 142.902344 70.34375 142.902344 C 90.035156 142.902344 105.996094 158.816406 105.996094 178.449219 C 105.996094 195.890625 93.394531 210.402344 76.769531 213.417969 L 42.234375 227.382812 L 58.765625 203.992188 C 62.296875 205.585938 66.214844 206.472656 70.34375 206.472656 " fill-opacity="1" fill-rule="nonzero"/><path fill="#1976d2" d="M 59.664062 177.199219 C 59.664062 179.742188 57.597656 181.804688 55.042969 181.804688 C 52.492188 181.804688 50.425781 179.742188 50.425781 177.199219 C 50.425781 174.652344 52.492188 172.589844 55.042969 172.589844 C 57.597656 172.589844 59.664062 174.652344 59.664062 177.199219 " fill-opacity="1" fill-rule="nonzero"/><path fill="#1976d2" d="M 73.578125 177.199219 C 73.578125 179.742188 71.511719 181.804688 68.957031 181.804688 C 66.40625 181.804688 64.339844 179.742188 64.339844 177.199219 C 64.339844 174.652344 66.40625 172.589844 68.957031 172.589844 C 71.511719 172.589844 73.578125 174.652344 73.578125 177.199219 " fill-opacity="1" fill-rule="nonzero"/><path fill="#1976d2" d="M 87.492188 177.199219 C 87.492188 179.742188 85.421875 181.804688 82.871094 181.804688 C 80.320312 181.804688 78.25 179.742188 78.25 177.199219 C 78.25 174.652344 80.320312 172.589844 82.871094 172.589844 C 85.421875 172.589844 87.492188 174.652344 87.492188 177.199219 " fill-opacity="1" fill-rule="nonzero"/><path fill="#1976d2" d="M 116.492188 163.292969 L 366.507812 163.292969 L 366.507812 212.03125 L 116.492188 212.03125 L 116.492188 163.292969 " fill-opacity="1" fill-rule="nonzero"/><g fill="#ffffff" fill-opacity="1"><g transform="translate(124.782242, 199.779094)"><g><path d="M 2.4375 0 L 2.769531 -24.335938 L 7.277344 -24.335938 L 7.277344 -13.320312 L 16.757812 -13.320312 L 16.757812 -24.335938 L 21.300781 -24.335938 L 21.601562 0 L 16.757812 0 L 16.757812 -7.746094 L 7.277344 -7.746094 L 7.277344 0 Z M 2.4375 0 "/></g></g></g><g fill="#ffffff" fill-opacity="1"><g transform="translate(148.851629, 199.779094)"><g><path d="M 2.4375 0 L 2.9375 -24.335938 L 7.144531 -24.335938 L 7.445312 0 Z M 2.4375 0 "/></g></g></g><g fill="#ffffff" fill-opacity="1"><g transform="translate(158.733098, 199.779094)"><g><path d="M 2.4375 -20.464844 L 2.4375 -24.335938 L 23.234375 -24.335938 L 23.234375 -20.429688 L 15.054688 -20.765625 L 15.65625 0 L 10.015625 0 L 10.617188 -20.765625 Z M 2.4375 -20.464844 "/></g></g></g><g fill="#ffffff" fill-opacity="1"><g transform="translate(184.404893, 199.779094)"><g><path d="M 22.300781 -18.027344 C 18.59375 -20.566406 16.558594 -20.933594 14.023438 -20.933594 C 9.113281 -20.933594 6.976562 -17.894531 6.976562 -12.152344 C 7.042969 -7.179688 9.480469 -5.542969 14.523438 -5.542969 C 17.058594 -5.542969 19.5625 -6.742188 22.300781 -9.246094 L 22.300781 -2.070312 C 19.832031 -0.402344 17.226562 0.46875 14.355469 0.46875 C 6.976562 0.46875 2.4375 -4.40625 2.4375 -12.152344 C 2.4375 -19.863281 6.476562 -24.4375 13.855469 -24.773438 C 16.691406 -24.90625 18.863281 -24.738281 22.300781 -23.070312 Z M 22.300781 -18.027344 "/></g></g></g><g fill="#ffffff" fill-opacity="1"><g transform="translate(209.141958, 199.779094)"><g><path d="M 2.4375 0 L 2.769531 -24.335938 L 7.277344 -24.335938 L 7.277344 -13.320312 L 16.757812 -13.320312 L 16.757812 -24.335938 L 21.300781 -24.335938 L 21.601562 0 L 16.757812 0 L 16.757812 -7.746094 L 7.277344 -7.746094 L 7.277344 0 Z M 2.4375 0 "/></g></g></g><g fill="#ffffff" fill-opacity="1"><g transform="translate(233.211359, 199.779094)"><g><path d="M 17.359375 -8.679688 L 13.921875 -18.863281 C 13.65625 -17.996094 13.355469 -17.160156 13.085938 -16.324219 C 12.820312 -15.492188 12.550781 -14.65625 12.285156 -13.855469 C 11.984375 -13.019531 11.71875 -12.183594 11.417969 -11.316406 C 11.152344 -10.449219 10.851562 -9.582031 10.550781 -8.679688 Z M 2.4375 0 L 12.050781 -24.335938 L 15.824219 -24.335938 L 25.4375 0 L 19.53125 0 L 18.664062 -3.773438 L 9.179688 -3.773438 L 8.011719 0 Z M 2.4375 0 "/></g></g></g><g fill="#ffffff" fill-opacity="1"><g transform="translate(261.08647, 199.779094)"><g><path d="M 2.4375 -20.464844 L 2.4375 -24.335938 L 23.234375 -24.335938 L 23.234375 -20.429688 L 15.054688 -20.765625 L 15.65625 0 L 10.015625 0 L 10.617188 -20.765625 Z M 2.4375 -20.464844 "/></g></g></g><g fill="#ffffff" fill-opacity="1"><g transform="translate(286.758265, 199.779094)"><g><path d="M 2.4375 -20.464844 L 2.4375 -24.335938 L 23.234375 -24.335938 L 23.234375 -20.429688 L 15.054688 -20.765625 L 15.65625 0 L 10.015625 0 L 10.617188 -20.765625 Z M 2.4375 -20.464844 "/></g></g></g><g fill="#ffffff" fill-opacity="1"><g transform="translate(312.43006, 199.779094)"><g><path d="M 2.4375 0 L 2.4375 -24.335938 L 18.292969 -24.335938 L 18.292969 -20.464844 L 6.808594 -20.464844 L 6.808594 -14.855469 L 17.792969 -14.855469 L 17.792969 -11.015625 L 6.808594 -11.015625 L 6.808594 -6.042969 L 18.5625 -6.042969 L 18.5625 0 Z M 2.4375 0 "/></g></g></g><g fill="#ffffff" fill-opacity="1"><g transform="translate(333.428213, 199.779094)"><g><path d="M 18.128906 -17.058594 C 18.128906 -14.421875 17.125 -12.484375 15.355469 -11.417969 C 16.457031 -10.582031 17.425781 -9.148438 18.429688 -7.210938 C 18.960938 -6.175781 19.597656 -4.875 20.265625 -3.570312 C 20.898438 -2.304688 21.566406 -1.035156 22.066406 0 L 16.191406 0 L 13.722656 -6.308594 L 13.722656 -6.277344 C 12.320312 -9.179688 11.316406 -9.75 9.113281 -9.75 L 7.410156 -9.75 L 7.410156 0 L 2.4375 0 L 2.4375 -24.335938 L 10.117188 -24.335938 C 12.652344 -24.335938 14.621094 -23.738281 15.992188 -22.535156 C 17.394531 -21.332031 18.128906 -19.496094 18.128906 -17.058594 Z M 7.109375 -21.464844 L 7.109375 -14.1875 L 10.449219 -14.1875 C 12.550781 -14.1875 14.6875 -15.625 14.6875 -17.058594 C 14.6875 -20.53125 12.519531 -21.464844 10.449219 -21.464844 Z M 7.109375 -21.464844 "/></g></g></g></svg>