<svg width="671" height="143" viewBox="0 0 671 143" fill="none" xmlns="http://www.w3.org/2000/svg">
<g clip-path="url(#clip0_2010_83)">
<path d="M2.40674 139.593L14.4118 103.581C8.3226 93.3349 4.81352 81.378 4.81352 68.5932C4.81352 30.7105 35.524 0 73.4067 0C111.289 0 142 30.7105 142 68.5932C142 106.476 111.289 137.186 73.4067 137.186C61.8807 137.186 51.0261 134.33 41.4928 129.309L2.40674 139.593Z" fill="#2167D0"/>
<path d="M46.86 80.2301C52.7418 80.2301 57.51 75.4619 57.51 69.5801C57.51 63.6982 52.7418 58.9301 46.86 58.9301C40.9781 58.9301 36.21 63.6982 36.21 69.5801C36.21 75.4619 40.9781 80.2301 46.86 80.2301Z" fill="white"/>
<path d="M71.5055 76.9207C75.4932 76.9207 78.7258 73.688 78.7258 69.7003C78.7258 65.7126 75.4932 62.48 71.5055 62.48C67.5178 62.48 64.2852 65.7126 64.2852 69.7003C64.2852 73.688 67.5178 76.9207 71.5055 76.9207Z" fill="#FF3B30"/>
<path d="M95.5251 80.2301C101.407 80.2301 106.175 75.4619 106.175 69.5801C106.175 63.6982 101.407 58.9301 95.5251 58.9301C89.6433 58.9301 84.8751 63.6982 84.8751 69.5801C84.8751 75.4619 89.6433 80.2301 95.5251 80.2301Z" fill="white"/>
<path d="M46.86 69.3595C47.4533 69.3595 48.0224 69.1238 48.4419 68.7042C48.8615 68.2847 49.0972 67.7156 49.0972 67.1223C49.0972 66.529 48.8615 65.9599 48.4419 65.5404C48.0224 65.1208 47.4533 64.8851 46.86 64.8851C46.2667 64.8851 45.6976 65.1208 45.2781 65.5404C44.8585 65.9599 44.6228 66.529 44.6228 67.1223C44.6228 67.7156 44.8585 68.2847 45.2781 68.7042C45.6976 69.1238 46.2667 69.3595 46.86 69.3595ZM46.86 70.3424C43.8856 70.3424 41.9788 71.9838 41.9788 72.783V74.2753H51.7413V72.783C51.7413 71.8165 49.9361 70.3424 46.86 70.3424Z" fill="black"/>
<path d="M95.85 69.3595C96.4433 69.3595 97.0124 69.1238 97.4319 68.7042C97.8515 68.2847 98.0872 67.7156 98.0872 67.1223C98.0872 66.529 97.8515 65.9599 97.4319 65.5404C97.0124 65.1208 96.4433 64.8851 95.85 64.8851C95.2567 64.8851 94.6876 65.1208 94.2681 65.5404C93.8485 65.9599 93.6128 66.529 93.6128 67.1223C93.6128 67.7156 93.8485 68.2847 94.2681 68.7042C94.6876 69.1238 95.2567 69.3595 95.85 69.3595ZM95.85 70.3424C92.8755 70.3424 90.9688 71.9838 90.9688 72.783V74.2753H100.731V72.783C100.731 71.8165 98.9261 70.3424 95.85 70.3424Z" fill="black"/>
</g>
<path d="M221.252 56.784C221.252 61.5013 220.169 65.832 218.004 69.776C215.839 73.6427 212.513 76.7747 208.028 79.172C203.543 81.5693 197.975 82.768 191.324 82.768H179.028V112H159.192V30.568H191.324C197.82 30.568 203.311 31.6893 207.796 33.932C212.281 36.1747 215.645 39.268 217.888 43.212C220.131 47.156 221.252 51.68 221.252 56.784ZM189.816 66.992C193.605 66.992 196.428 66.1027 198.284 64.324C200.14 62.5453 201.068 60.032 201.068 56.784C201.068 53.536 200.14 51.0227 198.284 49.244C196.428 47.4653 193.605 46.576 189.816 46.576H179.028V66.992H189.816ZM261.043 112.928C254.701 112.928 248.979 111.575 243.875 108.868C238.848 106.161 234.865 102.295 231.927 97.268C229.065 92.2413 227.635 86.364 227.635 79.636C227.635 72.9853 229.104 67.1467 232.043 62.12C234.981 57.016 239.003 53.1107 244.107 50.404C249.211 47.6973 254.933 46.344 261.275 46.344C267.616 46.344 273.339 47.6973 278.443 50.404C283.547 53.1107 287.568 57.016 290.507 62.12C293.445 67.1467 294.915 72.9853 294.915 79.636C294.915 86.2867 293.407 92.164 290.391 97.268C287.452 102.295 283.392 106.161 278.211 108.868C273.107 111.575 267.384 112.928 261.043 112.928ZM261.043 95.76C264.832 95.76 268.041 94.368 270.671 91.584C273.377 88.8 274.731 84.8173 274.731 79.636C274.731 74.4547 273.416 70.472 270.787 67.688C268.235 64.904 265.064 63.512 261.275 63.512C257.408 63.512 254.199 64.904 251.647 67.688C249.095 70.3947 247.819 74.3773 247.819 79.636C247.819 84.8173 249.056 88.8 251.531 91.584C254.083 94.368 257.253 95.76 261.043 95.76ZM325.274 56.436C327.207 53.42 329.875 50.984 333.278 49.128C336.681 47.272 340.663 46.344 345.226 46.344C350.562 46.344 355.395 47.6973 359.726 50.404C364.057 53.1107 367.459 56.9773 369.934 62.004C372.486 67.0307 373.762 72.8693 373.762 79.52C373.762 86.1707 372.486 92.048 369.934 97.152C367.459 102.179 364.057 106.084 359.726 108.868C355.395 111.575 350.562 112.928 345.226 112.928C340.741 112.928 336.758 112 333.278 110.144C329.875 108.288 327.207 105.891 325.274 102.952V142.856H305.438V47.272H325.274V56.436ZM353.578 79.52C353.578 74.5707 352.186 70.704 349.402 67.92C346.695 65.0587 343.331 63.628 339.31 63.628C335.366 63.628 332.002 65.0587 329.218 67.92C326.511 70.7813 325.158 74.6867 325.158 79.636C325.158 84.5853 326.511 88.4907 329.218 91.352C332.002 94.2133 335.366 95.644 339.31 95.644C343.254 95.644 346.618 94.2133 349.402 91.352C352.186 88.4133 353.578 84.4693 353.578 79.52ZM380.805 71.168C380.805 63.1253 382.545 55.972 386.025 49.708C389.505 43.3667 394.338 38.456 400.525 34.976C406.789 31.4187 413.865 29.64 421.753 29.64C431.419 29.64 439.694 32.192 446.577 37.296C453.459 42.4 458.061 49.36 460.381 58.176H438.573C436.949 54.7733 434.629 52.1827 431.613 50.404C428.674 48.6253 425.31 47.736 421.521 47.736C415.411 47.736 410.462 49.8627 406.673 54.116C402.883 58.3693 400.989 64.0533 400.989 71.168C400.989 78.2827 402.883 83.9667 406.673 88.22C410.462 92.4733 415.411 94.6 421.521 94.6C425.31 94.6 428.674 93.7107 431.613 91.932C434.629 90.1533 436.949 87.5627 438.573 84.16H460.381C458.061 92.976 453.459 99.936 446.577 105.04C439.694 110.067 431.419 112.58 421.753 112.58C413.865 112.58 406.789 110.84 400.525 107.36C394.338 103.803 389.505 98.892 386.025 92.628C382.545 86.364 380.805 79.2107 380.805 71.168ZM512.316 46.576C519.74 46.576 525.695 49.0507 530.18 54C534.665 58.872 536.908 65.6 536.908 74.184V112H517.188V76.852C517.188 72.5213 516.067 69.1573 513.824 66.76C511.581 64.3627 508.565 63.164 504.776 63.164C500.987 63.164 497.971 64.3627 495.728 66.76C493.485 69.1573 492.364 72.5213 492.364 76.852V112H472.528V26.16H492.364V55.972C494.375 53.1107 497.12 50.8293 500.6 49.128C504.08 47.4267 507.985 46.576 512.316 46.576ZM546.748 79.52C546.748 72.8693 547.985 67.0307 550.46 62.004C553.012 56.9773 556.453 53.1107 560.784 50.404C565.115 47.6973 569.948 46.344 575.284 46.344C579.847 46.344 583.829 47.272 587.232 49.128C590.712 50.984 593.38 53.42 595.236 56.436V47.272H615.072V112H595.236V102.836C593.303 105.852 590.596 108.288 587.116 110.144C583.713 112 579.731 112.928 575.168 112.928C569.909 112.928 565.115 111.575 560.784 108.868C556.453 106.084 553.012 102.179 550.46 97.152C547.985 92.048 546.748 86.1707 546.748 79.52ZM595.236 79.636C595.236 74.6867 593.844 70.7813 591.06 67.92C588.353 65.0587 585.028 63.628 581.084 63.628C577.14 63.628 573.776 65.0587 570.992 67.92C568.285 70.704 566.932 74.5707 566.932 79.52C566.932 84.4693 568.285 88.4133 570.992 91.352C573.776 94.2133 577.14 95.644 581.084 95.644C585.028 95.644 588.353 94.2133 591.06 91.352C593.844 88.4907 595.236 84.5853 595.236 79.636ZM665.498 95.18V112H655.406C648.214 112 642.608 110.26 638.586 106.78C634.565 103.223 632.554 97.4613 632.554 89.496V63.744H624.666V47.272H632.554V31.496H652.39V47.272H665.382V63.744H652.39V89.728C652.39 91.6613 652.854 93.0533 653.782 93.904C654.71 94.7547 656.257 95.18 658.422 95.18H665.498Z" fill="#2167D0"/>
<defs>
<clipPath id="clip0_2010_83">
<rect width="142" height="142" fill="white"/>
</clipPath>
</defs>
</svg>
